<?xml version="1.0" encoding="utf-8"?>
<!-- Generator: Adobe Illustrator 15.1.0, SVG Export Plug-In . SVG Version: 6.00 Build 0)  -->
<!DOCTYPE svg PUBLIC "-//W3C//DTD SVG 1.1//EN" "http://www.w3.org/Graphics/SVG/1.1/DTD/svg11.dtd">
<svg version="1.1" id="Capa_1" xmlns="http://www.w3.org/2000/svg" xmlns:xlink="http://www.w3.org/1999/xlink" x="0px" y="0px"
	 width="841.89px" height="595.28px" viewBox="0 0 841.89 595.28" enable-background="new 0 0 841.89 595.28" xml:space="preserve">
<path fill="#FFFFFF" stroke="#2E2EDB" stroke-width="2" stroke-miterlimit="10" d="M154.163,116.714
	c178.572,127.551-41.836,78.571-41.836,78.571L348.041,71.816"/>
<g>
	<path d="M200.016,143.062l-4.026-7.588l2.614-1.387c0.59-0.313,1.06-0.516,1.408-0.608c0.488-0.131,0.955-0.146,1.401-0.047
		c0.58,0.125,1.108,0.398,1.586,0.82c0.478,0.421,0.896,0.97,1.255,1.646c0.306,0.577,0.51,1.123,0.611,1.64
		s0.125,0.976,0.068,1.379c-0.056,0.403-0.164,0.755-0.326,1.055c-0.161,0.3-0.396,0.587-0.704,0.861
		c-0.308,0.274-0.691,0.533-1.15,0.776L200.016,143.062z M200.544,141.633l1.62-0.86c0.5-0.266,0.868-0.521,1.104-0.765
		c0.235-0.244,0.393-0.496,0.472-0.754c0.112-0.365,0.127-0.783,0.047-1.255s-0.272-0.995-0.577-1.568
		c-0.421-0.794-0.875-1.334-1.361-1.623c-0.487-0.288-0.955-0.405-1.404-0.353c-0.325,0.04-0.785,0.217-1.382,0.535l-1.594,0.845
		L200.544,141.633z"/>
	<path d="M210.778,136.481c-0.189,0.477-0.412,0.86-0.667,1.15c-0.255,0.29-0.565,0.532-0.931,0.726
		c-0.604,0.32-1.146,0.419-1.627,0.297c-0.481-0.123-0.843-0.414-1.086-0.873c-0.143-0.269-0.212-0.548-0.208-0.835
		c0.004-0.288,0.07-0.552,0.197-0.791c0.127-0.24,0.296-0.46,0.509-0.662c0.157-0.145,0.408-0.338,0.753-0.579
		c0.705-0.488,1.202-0.889,1.491-1.202c-0.064-0.13-0.106-0.211-0.124-0.247c-0.202-0.379-0.432-0.6-0.69-0.662
		c-0.35-0.084-0.759-0.002-1.229,0.248c-0.438,0.232-0.72,0.481-0.848,0.745c-0.127,0.265-0.137,0.618-0.031,1.061l-0.977,0.359
		c-0.124-0.434-0.155-0.821-0.092-1.162s0.239-0.671,0.529-0.991c0.29-0.32,0.671-0.605,1.145-0.855
		c0.469-0.249,0.879-0.396,1.231-0.442c0.352-0.045,0.642-0.021,0.869,0.074c0.227,0.094,0.435,0.254,0.626,0.48
		c0.116,0.142,0.283,0.42,0.503,0.834l0.659,1.242c0.459,0.866,0.77,1.404,0.931,1.612c0.162,0.208,0.357,0.387,0.586,0.535
		l-0.974,0.516C211.125,136.918,210.943,136.725,210.778,136.481z M209.597,134.441c-0.265,0.317-0.71,0.704-1.335,1.159
		c-0.354,0.259-0.591,0.465-0.713,0.618c-0.123,0.153-0.191,0.319-0.207,0.498s0.02,0.349,0.105,0.511
		c0.132,0.249,0.336,0.406,0.612,0.472c0.276,0.066,0.595,0.003,0.958-0.189c0.359-0.191,0.637-0.438,0.833-0.744
		c0.196-0.306,0.288-0.629,0.274-0.971c-0.012-0.264-0.126-0.601-0.345-1.011L209.597,134.441z"/>
	<path d="M213.447,135.934l-2.917-5.496l0.838-0.445l0.415,0.781c0.083-0.818,0.506-1.43,1.269-1.834
		c0.331-0.176,0.667-0.278,1.008-0.306c0.341-0.029,0.631,0.018,0.872,0.137c0.241,0.12,0.459,0.298,0.655,0.535
		c0.126,0.154,0.304,0.447,0.533,0.878l1.793,3.38l-0.932,0.494l-1.774-3.344c-0.202-0.379-0.388-0.644-0.561-0.794
		c-0.172-0.149-0.38-0.231-0.625-0.245s-0.49,0.044-0.739,0.176c-0.396,0.21-0.672,0.519-0.827,0.923
		c-0.154,0.404-0.044,0.958,0.329,1.663l1.593,3.002L213.447,135.934z"/>
	<path d="M215.889,126.287l-0.568-1.072l0.931-0.494l0.569,1.071L215.889,126.287z M219.347,132.803l-2.917-5.497l0.932-0.494
		l2.917,5.497L219.347,132.803z"/>
	<path d="M224.52,127.789l1.026-0.392c0.147,0.643,0.098,1.229-0.148,1.757c-0.246,0.528-0.688,0.962-1.326,1.301
		c-0.804,0.427-1.573,0.517-2.307,0.272c-0.734-0.246-1.338-0.815-1.812-1.708c-0.491-0.925-0.634-1.769-0.428-2.532
		c0.205-0.763,0.687-1.347,1.446-1.75c0.735-0.39,1.468-0.458,2.199-0.205c0.731,0.253,1.338,0.833,1.819,1.741
		c0.029,0.056,0.072,0.139,0.126,0.251l-4.099,2.175c0.354,0.585,0.771,0.957,1.248,1.115c0.478,0.158,0.946,0.115,1.405-0.128
		c0.342-0.182,0.585-0.426,0.732-0.733S224.587,128.257,224.52,127.789z M220.662,127.906l3.069-1.629
		c-0.287-0.44-0.588-0.725-0.904-0.854c-0.487-0.201-0.967-0.177-1.44,0.074c-0.428,0.227-0.712,0.562-0.851,1.002
		C220.397,126.941,220.438,127.41,220.662,127.906z"/>
	<path d="M227.572,128.438l-4.027-7.587l0.932-0.495l4.026,7.588L227.572,128.438z"/>
	<path d="M233.027,125.543L229,117.956l3.364-1.785c0.677-0.359,1.227-0.564,1.651-0.614c0.424-0.051,0.833,0.041,1.227,0.274
		c0.394,0.234,0.701,0.559,0.922,0.977c0.286,0.538,0.353,1.084,0.2,1.638c-0.152,0.554-0.566,1.075-1.241,1.561
		c0.333-0.013,0.603,0.005,0.806,0.057c0.436,0.113,0.893,0.303,1.369,0.567l2.416,1.365l-1.263,0.67l-1.842-1.046
		c-0.535-0.3-0.961-0.521-1.279-0.661c-0.318-0.141-0.578-0.22-0.779-0.237c-0.202-0.017-0.39-0.003-0.565,0.041
		c-0.126,0.037-0.319,0.124-0.578,0.261l-1.165,0.618l1.788,3.369L233.027,125.543z M231.781,120.772l2.159-1.146
		c0.458-0.244,0.792-0.481,1.001-0.713c0.208-0.232,0.324-0.489,0.348-0.769c0.024-0.281-0.029-0.542-0.159-0.788
		c-0.191-0.359-0.478-0.584-0.861-0.677s-0.856,0.009-1.418,0.308l-2.402,1.274L231.781,120.772z"/>
	<path d="M238.742,118.989c-0.54-1.018-0.657-1.922-0.352-2.712c0.257-0.658,0.725-1.167,1.405-1.528
		c0.755-0.401,1.504-0.481,2.247-0.24c0.743,0.241,1.345,0.797,1.809,1.67c0.375,0.708,0.565,1.32,0.568,1.838
		c0.003,0.518-0.139,0.997-0.426,1.436c-0.287,0.44-0.669,0.787-1.149,1.042c-0.77,0.408-1.522,0.491-2.258,0.25
		C239.849,120.502,239.234,119.917,238.742,118.989z M239.699,118.48c0.374,0.704,0.807,1.149,1.3,1.337
		c0.493,0.187,0.973,0.157,1.438-0.09c0.462-0.245,0.753-0.625,0.874-1.14c0.121-0.515-0.01-1.133-0.393-1.854
		c-0.361-0.68-0.789-1.113-1.284-1.299c-0.494-0.187-0.971-0.157-1.43,0.086c-0.466,0.247-0.76,0.626-0.882,1.138
		C239.2,117.169,239.326,117.777,239.699,118.48z"/>
	<path d="M250.008,116.532l-0.368-0.693c-0.06,0.73-0.427,1.275-1.104,1.634c-0.438,0.232-0.905,0.325-1.401,0.279
		s-0.959-0.232-1.391-0.558c-0.432-0.326-0.797-0.771-1.096-1.333c-0.291-0.548-0.464-1.095-0.518-1.639s0.039-1.032,0.278-1.464
		c0.239-0.433,0.585-0.769,1.037-1.008c0.332-0.176,0.664-0.262,0.997-0.26c0.333,0.003,0.64,0.073,0.921,0.211l-1.445-2.722
		l0.926-0.492l4.026,7.587L250.008,116.532z M245.607,115.352c0.374,0.704,0.802,1.151,1.283,1.343
		c0.482,0.191,0.925,0.179,1.329-0.035c0.407-0.216,0.665-0.566,0.772-1.05s-0.019-1.068-0.382-1.751
		c-0.399-0.752-0.837-1.227-1.314-1.426c-0.476-0.198-0.927-0.184-1.352,0.041c-0.414,0.22-0.67,0.572-0.769,1.058
		C245.078,114.017,245.222,114.624,245.607,115.352z"/>
	<path d="M252.327,115.302l-2.917-5.497l0.838-0.445l0.442,0.833c0.007-0.503,0.068-0.866,0.184-1.086
		c0.115-0.22,0.281-0.388,0.499-0.503c0.314-0.167,0.687-0.236,1.117-0.208l0.138,1.035c-0.299-0.014-0.563,0.04-0.791,0.161
		c-0.203,0.108-0.354,0.266-0.451,0.475c-0.098,0.208-0.123,0.44-0.076,0.694c0.072,0.386,0.212,0.776,0.421,1.169l1.527,2.878
		L252.327,115.302z"/>
	<path d="M252.867,107.095l-0.081-1.814l1.222-0.648l-0.37,2.053L252.867,107.095z M256.194,113.25l-2.917-5.497l0.931-0.494
		l2.917,5.497L256.194,113.25z"/>
	<path d="M258.883,112.406l0.977-0.346c0.187,0.26,0.399,0.407,0.64,0.443c0.322,0.05,0.684-0.032,1.084-0.244
		c0.432-0.229,0.719-0.492,0.862-0.789s0.174-0.623,0.092-0.977c-0.052-0.215-0.242-0.626-0.567-1.231
		c-0.153,0.696-0.532,1.205-1.14,1.527c-0.755,0.401-1.485,0.438-2.188,0.113c-0.704-0.326-1.257-0.869-1.662-1.632
		c-0.278-0.524-0.44-1.059-0.486-1.603c-0.046-0.544,0.048-1.032,0.28-1.466c0.232-0.433,0.592-0.778,1.079-1.036
		c0.648-0.344,1.322-0.366,2.022-0.065l-0.352-0.663l0.859-0.456l2.521,4.751c0.454,0.856,0.688,1.508,0.704,1.958
		c0.015,0.45-0.111,0.878-0.379,1.286c-0.268,0.408-0.678,0.758-1.23,1.051c-0.655,0.348-1.263,0.481-1.824,0.4
		C259.615,113.348,259.185,113.007,258.883,112.406z M257.902,108.695c0.383,0.721,0.806,1.172,1.268,1.351
		c0.462,0.179,0.909,0.154,1.34-0.075c0.428-0.227,0.699-0.583,0.814-1.065c0.115-0.483-0.014-1.077-0.388-1.781
		c-0.357-0.672-0.775-1.101-1.255-1.284c-0.479-0.183-0.93-0.163-1.351,0.061c-0.414,0.22-0.677,0.575-0.788,1.065
		C257.43,107.457,257.55,108.033,257.902,108.695z"/>
	<path d="M268.31,106.82l-0.428-0.808c-0.098,0.848-0.515,1.468-1.25,1.857c-0.324,0.172-0.66,0.271-1.007,0.295
		s-0.639-0.02-0.875-0.136c-0.236-0.116-0.454-0.295-0.654-0.539c-0.135-0.163-0.308-0.443-0.519-0.839l-1.807-3.406l0.932-0.495
		l1.618,3.049c0.258,0.486,0.451,0.804,0.579,0.954c0.188,0.213,0.415,0.34,0.679,0.379c0.264,0.04,0.535-0.016,0.815-0.164
		c0.28-0.149,0.504-0.359,0.673-0.632c0.169-0.273,0.239-0.561,0.21-0.861c-0.029-0.301-0.168-0.686-0.417-1.155l-1.563-2.945
		l0.931-0.495l2.917,5.497L268.31,106.82z"/>
	<path d="M273.426,101.836l1.026-0.392c0.147,0.643,0.097,1.229-0.149,1.757c-0.246,0.529-0.688,0.962-1.326,1.301
		c-0.804,0.427-1.573,0.517-2.307,0.272s-1.338-0.814-1.812-1.708c-0.491-0.924-0.633-1.769-0.428-2.532
		c0.205-0.764,0.688-1.347,1.446-1.75c0.735-0.39,1.468-0.458,2.2-0.205c0.731,0.253,1.337,0.833,1.819,1.741
		c0.029,0.055,0.071,0.139,0.126,0.251l-4.099,2.175c0.355,0.586,0.771,0.958,1.249,1.116c0.478,0.157,0.945,0.115,1.404-0.129
		c0.341-0.181,0.586-0.425,0.732-0.733C273.454,102.693,273.494,102.305,273.426,101.836z M269.568,101.954l3.069-1.628
		c-0.287-0.441-0.588-0.725-0.904-0.854c-0.487-0.202-0.967-0.177-1.44,0.074c-0.428,0.227-0.711,0.561-0.851,1.002
		S269.345,101.458,269.568,101.954z"/>
	<path d="M276.006,102.736l-0.401-0.755l1.367-5.873c-0.386,0.231-0.73,0.428-1.034,0.588l-2.241,1.189l-0.401-0.755l4.493-2.384
		l0.327,0.616l-1.125,5.068l-0.237,0.941c0.401-0.252,0.784-0.476,1.15-0.67l2.541-1.349l0.426,0.803L276.006,102.736z"/>
	<path d="M282.595,94.503c-0.668-1.26-0.853-2.425-0.555-3.497c0.298-1.071,0.982-1.891,2.052-2.458
		c0.7-0.372,1.421-0.54,2.161-0.503c0.74,0.036,1.417,0.275,2.029,0.718c0.613,0.442,1.121,1.042,1.523,1.801
		c0.409,0.77,0.619,1.541,0.63,2.312c0.012,0.772-0.184,1.466-0.587,2.08c-0.404,0.615-0.936,1.097-1.594,1.446
		c-0.714,0.379-1.444,0.545-2.189,0.499c-0.746-0.046-1.422-0.292-2.028-0.734C283.429,95.724,282.949,95.169,282.595,94.503z
		 M283.639,93.97c0.486,0.914,1.113,1.504,1.884,1.77c0.771,0.265,1.528,0.201,2.27-0.193c0.756-0.401,1.237-0.997,1.443-1.787
		c0.207-0.791,0.05-1.674-0.468-2.65c-0.328-0.618-0.718-1.102-1.172-1.451c-0.453-0.35-0.948-0.545-1.484-0.585
		c-0.537-0.04-1.055,0.072-1.555,0.337c-0.711,0.378-1.193,0.946-1.446,1.707S283.033,92.827,283.639,93.97z"/>
	<path d="M294.515,92.914l-5.008-4.387l0.983-0.522l2.927,2.666c0.316,0.288,0.629,0.595,0.939,0.921
		c-0.071-0.333-0.14-0.744-0.208-1.229l-0.559-4.002l0.958-0.508l0.836,6.601L294.515,92.914z"/>
	<path d="M294.835,84.393l-0.568-1.071l0.932-0.495l0.569,1.071L294.835,84.393z M298.293,90.91l-2.917-5.497l0.931-0.494
		l2.917,5.497L298.293,90.91z"/>
	<path d="M303.466,85.896l1.026-0.392c0.146,0.643,0.097,1.229-0.149,1.757c-0.246,0.529-0.688,0.962-1.326,1.301
		c-0.804,0.427-1.573,0.518-2.307,0.272c-0.734-0.245-1.338-0.814-1.813-1.708c-0.491-0.925-0.633-1.769-0.428-2.532
		c0.206-0.763,0.688-1.346,1.446-1.749c0.735-0.39,1.468-0.458,2.2-0.206c0.731,0.253,1.338,0.833,1.819,1.741
		c0.029,0.055,0.071,0.139,0.127,0.251l-4.1,2.175c0.355,0.585,0.771,0.958,1.249,1.115c0.478,0.158,0.946,0.115,1.404-0.128
		c0.342-0.181,0.585-0.426,0.732-0.733S303.534,86.364,303.466,85.896z M299.608,86.013l3.07-1.629
		c-0.287-0.44-0.588-0.725-0.904-0.853c-0.487-0.202-0.967-0.177-1.44,0.074c-0.428,0.227-0.711,0.561-0.851,1.001
		C299.343,85.048,299.385,85.517,299.608,86.013z"/>
	<path d="M310.104,84.642l-0.368-0.693c-0.059,0.73-0.427,1.274-1.104,1.633c-0.438,0.232-0.905,0.326-1.4,0.279
		c-0.496-0.046-0.959-0.233-1.391-0.559c-0.432-0.326-0.797-0.77-1.095-1.332c-0.291-0.549-0.464-1.095-0.518-1.639
		c-0.055-0.544,0.038-1.032,0.277-1.464c0.239-0.432,0.585-0.768,1.038-1.008c0.331-0.176,0.663-0.263,0.996-0.26
		c0.333,0.002,0.64,0.072,0.921,0.211l-1.445-2.723l0.926-0.492l4.026,7.588L310.104,84.642z M305.704,83.461
		c0.374,0.704,0.801,1.151,1.283,1.342c0.482,0.191,0.924,0.179,1.328-0.035c0.407-0.216,0.665-0.566,0.773-1.05
		c0.108-0.484-0.02-1.067-0.382-1.75c-0.399-0.752-0.837-1.228-1.314-1.426c-0.476-0.198-0.926-0.185-1.351,0.041
		c-0.414,0.22-0.67,0.572-0.769,1.058C305.173,82.126,305.317,82.733,305.704,83.461z"/>
	<path d="M310.628,80.841c-0.54-1.018-0.657-1.922-0.352-2.712c0.257-0.658,0.725-1.167,1.405-1.528
		c0.755-0.401,1.504-0.481,2.247-0.24c0.742,0.24,1.345,0.797,1.808,1.67c0.375,0.707,0.564,1.32,0.567,1.838
		c0.003,0.518-0.139,0.997-0.425,1.436c-0.287,0.439-0.67,0.787-1.149,1.041c-0.769,0.409-1.522,0.491-2.258,0.25
		C311.735,82.354,311.121,81.77,310.628,80.841z M311.585,80.333c0.374,0.705,0.807,1.15,1.3,1.337
		c0.493,0.188,0.973,0.158,1.438-0.09c0.462-0.245,0.754-0.625,0.874-1.14c0.121-0.515-0.01-1.133-0.393-1.854
		c-0.361-0.68-0.789-1.113-1.284-1.299c-0.494-0.187-0.971-0.158-1.43,0.085c-0.466,0.248-0.76,0.627-0.882,1.138
		C311.086,79.022,311.212,79.629,311.585,80.333z"/>
</g>
</svg>
